<?xml version="1.0" standalone="no"?>
<!DOCTYPE svg PUBLIC "-//W3C//DTD SVG 20010904//EN"
 "http://www.w3.org/TR/2001/REC-SVG-20010904/DTD/svg10.dtd">
<svg version="1.0" xmlns="http://www.w3.org/2000/svg"
 width="980.000000pt" height="980.000000pt" viewBox="0 0 980.000000 980.000000"
 preserveAspectRatio="xMidYMid meet">

<g transform="translate(0.000000,980.000000) scale(0.100000,-0.100000)"
fill="#000000" stroke="none">
<path d="M3917 9415 c-124 -15 -249 -37 -243 -42 2 -2 59 4 127 14 163 22 467
22 643 -1 983 -127 1641 -578 1895 -1300 99 -282 116 -574 50 -900 -36 -179
-44 -178 -45 6 0 183 -15 265 -79 430 -43 111 -83 186 -180 333 -219 333 -491
572 -864 759 -465 234 -936 333 -1450 305 -90 -5 -165 -10 -167 -12 -2 -1 104
-3 234 -3 506 -2 906 -98 1356 -326 300 -153 546 -345 727 -571 372 -462 481
-881 343 -1319 -23 -73 -107 -268 -116 -268 -2 0 -3 80 -4 178 0 159 -3 187
-27 277 -68 252 -258 539 -502 757 -371 332 -920 624 -1497 798 -263 79 -625
151 -828 164 -87 6 -84 5 158 -35 603 -99 1242 -343 1747 -667 365 -235 651
-522 789 -792 112 -219 141 -346 133 -580 -7 -196 -38 -323 -121 -491 -20 -40
-34 -74 -32 -76 7 -7 74 120 106 201 17 44 39 114 50 157 11 46 35 106 60 148
50 87 91 182 120 281 12 41 39 129 60 195 66 204 81 297 87 515 5 169 2 212
-16 319 -84 494 -389 923 -850 1198 -455 271 -1131 412 -1664 348z"/>
<path d="M2948 8550 c-251 -53 -474 -175 -664 -364 -124 -124 -187 -210 -258
-346 -93 -181 -120 -295 -120 -495 0 -161 14 -229 71 -338 48 -92 128 -163
224 -201 103 -41 246 -48 348 -17 l69 21 47 -20 c108 -46 185 -134 185 -212 0
-66 -46 -135 -114 -170 -33 -17 -37 -23 -32 -46 4 -15 11 -56 18 -92 35 -210
-116 -370 -354 -372 -71 0 -73 0 -98 33 -14 18 -53 62 -86 98 l-61 66 18 30
c11 17 19 44 18 60 l-1 30 -8 -29 c-14 -46 -39 -66 -81 -66 -63 0 -99 66 -64
117 15 21 17 21 52 6 54 -22 140 -19 194 6 92 43 150 128 170 247 14 78 2 163
-26 200 -13 16 -13 13 0 -18 33 -83 4 -203 -63 -260 -79 -67 -192 -76 -279
-22 -159 98 -146 332 22 410 50 24 41 33 -12 13 -123 -46 -207 -193 -189 -333
9 -70 50 -149 98 -190 l40 -35 -21 -27 c-28 -36 -28 -88 2 -118 13 -13 28 -25
34 -27 6 -2 36 -49 66 -104 137 -246 162 -398 81 -495 -35 -41 -78 -47 -163
-21 -38 12 -73 21 -79 21 -5 0 -12 -19 -16 -42 -28 -179 -123 -247 -259 -185
-30 14 -73 43 -94 64 -50 50 -122 169 -178 292 -47 106 -70 124 -81 66 -16
-88 21 -245 90 -384 41 -81 128 -166 212 -207 73 -36 187 -44 262 -20 60 20
132 81 167 141 23 39 30 43 77 49 114 15 206 83 249 184 44 100 35 253 -23
365 l-19 39 33 -9 c18 -4 76 -8 128 -8 82 1 103 5 153 28 155 71 228 190 229
371 0 88 1 90 34 125 56 59 79 116 79 196 -1 132 -79 240 -206 286 -32 12 -59
23 -59 24 0 2 25 29 55 61 57 59 119 169 131 230 3 19 9 34 13 34 3 0 15 -16
26 -36 35 -65 153 -134 231 -134 27 0 36 -6 49 -29 39 -76 145 -97 207 -42 33
29 33 29 57 10 13 -10 37 -19 53 -19 18 0 43 -11 61 -26 24 -20 37 -24 60 -20
21 4 36 1 49 -11 12 -10 36 -18 61 -18 23 0 53 -7 66 -14 14 -8 39 -11 62 -8
22 3 42 1 45 -5 11 -18 53 -28 79 -18 20 8 32 6 51 -7 22 -14 31 -15 56 -5 25
9 35 8 52 -3 26 -19 66 -19 92 -1 13 10 25 11 35 5 22 -14 62 -11 87 6 16 12
27 13 41 5 30 -15 55 -12 84 10 16 13 28 16 32 10 10 -15 81 -12 95 5 9 10 24
13 56 8 33 -4 49 -2 62 10 9 9 33 15 54 14 22 0 45 6 56 16 11 10 35 17 60 17
30 0 47 6 62 22 15 16 30 22 53 20 21 -2 39 4 54 17 13 13 36 21 56 21 19 0
42 8 55 20 12 12 35 20 55 20 23 0 41 8 57 25 14 15 35 25 51 25 20 0 35 9 51
30 l22 30 44 -42 c97 -95 149 -190 297 -550 l24 -58 -112 -57 c-168 -86 -308
-184 -417 -292 -110 -109 -161 -182 -206 -295 -78 -191 -66 -384 35 -583 73
-147 252 -381 434 -569 189 -197 264 -307 289 -424 15 -76 -8 -155 -63 -215
-47 -51 -73 -61 -187 -74 -68 -7 -99 -17 -162 -50 -68 -35 -88 -41 -143 -41
-85 0 -151 24 -199 72 -22 22 -35 31 -30 21 14 -25 51 -58 87 -76 38 -19 152
-40 173 -32 9 3 57 10 107 15 74 7 105 15 161 43 38 19 89 40 112 46 54 15
101 56 134 118 49 91 46 177 -12 293 -42 82 -102 159 -251 320 -220 237 -365
428 -439 579 -56 114 -74 189 -74 311 -1 241 86 371 374 561 157 104 243 170
332 255 31 30 59 54 62 54 11 0 77 -223 86 -293 18 -124 -17 -279 -85 -387
-64 -101 -180 -199 -294 -246 -31 -13 -50 -23 -43 -24 22 0 133 50 190 87 30
19 76 57 103 85 27 28 51 49 53 47 3 -2 16 -36 30 -74 l25 -69 -31 -59 c-75
-140 -258 -242 -448 -248 -25 -1 -35 -4 -24 -6 18 -3 24 -15 32 -61 l9 -57 2
58 c1 49 4 57 20 57 23 0 31 -19 31 -78 1 -39 3 -44 11 -28 7 10 9 37 6 61 -6
40 -4 43 19 48 29 5 35 -2 51 -63 l12 -45 -4 57 c-3 53 -2 57 22 63 32 8 36 4
50 -58 l12 -52 -2 65 c-1 87 19 92 64 16 18 -30 35 -54 36 -52 2 2 -9 29 -23
61 -22 47 -24 59 -13 66 9 6 17 3 24 -8 6 -9 23 -30 38 -47 l28 -31 -25 46
c-45 79 -30 93 34 29 47 -47 71 -54 29 -8 -46 48 -51 63 -30 82 16 15 19 14
39 -14 12 -16 32 -35 45 -41 20 -11 20 -9 -4 17 -39 42 -50 69 -37 82 8 8 19
5 40 -13 16 -14 35 -25 41 -25 11 0 140 -344 269 -714 105 -303 132 -467 132
-831 0 -352 -8 -393 -178 -945 -31 -102 -71 -230 -87 -285 -36 -117 -94 -239
-150 -312 -35 -46 -54 -60 -152 -108 -180 -87 -351 -127 -619 -145 -480 -33
-1038 84 -1713 360 -239 97 -254 102 -150 50 371 -184 832 -346 1180 -414 72
-14 141 -27 155 -28 28 -3 28 -5 6 -93 -32 -124 -11 -248 69 -410 30 -60 51
-112 46 -115 -335 -232 -1029 -728 -1037 -741 -5 -8 -3 -9 7 -4 24 15 550 365
644 430 50 34 155 106 235 160 80 54 303 207 495 340 193 132 355 244 362 248
7 4 26 1 42 -8 63 -32 147 -11 176 45 8 16 15 51 15 78 l0 48 88 60 c48 33
121 84 163 113 l76 53 51 -18 c47 -17 55 -17 94 -4 59 21 91 69 86 132 l-3 47
129 90 128 89 32 -19 c92 -56 209 24 191 131 l-6 38 92 66 c85 60 94 64 113
50 27 -19 96 -18 124 2 32 22 54 70 50 111 -3 35 0 38 87 99 82 56 91 61 109
48 36 -25 94 -18 128 16 25 26 29 36 27 75 -4 56 10 73 42 51 38 -27 96 -21
130 13 24 24 29 38 29 78 l0 48 82 60 c45 33 87 63 94 67 9 6 10 -8 7 -55 -10
-114 47 -193 154 -218 l51 -12 -341 -232 c-422 -285 -1209 -829 -1827 -1260
-25 -17 -151 -105 -280 -195 -890 -620 -1661 -1172 -1617 -1156 53 18 1836
1244 2977 2048 168 118 368 259 445 313 228 160 557 396 597 427 21 16 42 27
48 23 13 -8 53 -88 70 -139 7 -22 16 -73 20 -115 l7 -76 1 75 c1 70 -14 133
-53 225 -9 19 -8 19 14 5 13 -9 48 -56 78 -105 30 -50 66 -101 81 -115 l26
-25 -21 25 c-12 14 -42 63 -68 110 -27 49 -65 102 -90 126 l-45 40 48 25 c68
37 112 105 112 174 0 65 -12 101 -48 139 -61 65 -166 85 -233 43 -89 -54 -903
-606 -1439 -975 -124 -86 -268 -184 -320 -220 -52 -36 -116 -81 -142 -99 -27
-19 -48 -32 -48 -28 0 3 13 25 29 48 65 96 100 183 176 446 29 102 62 209 72
237 l18 52 120 -105 120 -105 -119 116 c-91 89 -117 119 -112 133 4 10 14 44
23 76 9 31 19 57 22 57 8 0 94 -135 124 -195 14 -27 47 -70 74 -95 l48 -45
-41 45 c-23 25 -56 74 -74 108 -17 35 -51 96 -76 135 -24 39 -44 80 -44 91 0
19 0 19 21 0 11 -10 44 -52 73 -94 59 -83 178 -201 228 -225 18 -8 24 -10 14
-3 -62 41 -127 102 -171 160 -152 201 -157 208 -150 239 4 16 12 29 20 29 7 0
58 -48 113 -107 55 -60 113 -116 128 -125 16 -9 -33 47 -108 125 l-138 142 6
50 c4 28 10 54 14 58 10 12 70 -60 93 -112 31 -71 84 -146 125 -177 32 -24 30
-20 -16 29 -33 35 -66 86 -87 132 -19 41 -53 95 -76 120 l-41 45 7 66 7 66 25
-24 c14 -12 47 -70 75 -128 84 -177 132 -271 141 -277 4 -3 -10 31 -32 76 -23
44 -55 115 -71 157 -43 107 -66 149 -105 193 -19 21 -35 44 -35 51 0 20 47
-27 87 -88 19 -28 49 -62 66 -74 29 -19 28 -17 -9 23 -23 24 -54 66 -69 92
-15 27 -38 55 -51 64 -21 13 -24 23 -24 74 0 41 4 59 13 59 34 0 118 -53 167
-106 69 -73 89 -101 145 -206 54 -100 60 -97 9 5 -86 171 -196 291 -290 317
l-42 12 -6 86 c-4 48 -11 129 -17 180 -6 52 -8 96 -5 99 3 3 52 -40 110 -96
110 -107 155 -134 250 -152 68 -12 150 1 231 36 74 33 70 40 -6 9 -121 -49
-249 -40 -345 26 -42 29 -138 129 -131 137 2 2 16 -1 31 -7 15 -5 56 -14 92
-20 84 -14 159 0 256 45 90 42 84 45 -14 6 -40 -16 -95 -33 -123 -36 -89 -12
-221 30 -331 106 -43 29 -41 24 -80 179 -5 19 15 4 82 -61 49 -48 107 -98 130
-112 88 -54 207 -71 310 -43 57 15 147 61 167 84 6 9 -6 3 -29 -11 -114 -76
-274 -89 -388 -33 -75 37 -296 256 -321 319 -10 23 -20 48 -23 56 -3 8 31 -15
76 -52 134 -109 210 -138 356 -136 l91 2 -95 7 c-96 8 -178 32 -235 70 -16 10
-73 59 -126 107 -89 81 -99 94 -128 167 -17 43 -30 80 -28 82 2 2 61 -57 131
-131 113 -119 136 -139 208 -175 44 -22 90 -40 102 -39 15 0 11 4 -15 14 -111
41 -176 94 -295 241 -40 50 -95 111 -121 134 -32 28 -55 59 -70 97 -13 31 -23
60 -23 64 0 14 74 -13 115 -41 55 -38 81 -68 165 -190 75 -109 146 -190 215
-242 29 -22 24 -15 -16 23 -70 67 -112 120 -179 229 -106 173 -175 239 -279
265 l-46 12 -82 204 c-45 112 -82 210 -83 218 -1 43 114 -106 201 -259 34 -60
84 -133 112 -162 27 -29 36 -37 19 -16 -16 20 -45 58 -63 85 l-33 48 60 -54
c86 -79 150 -106 249 -106 70 0 89 4 153 34 39 19 77 40 82 47 6 7 -17 -3 -52
-21 -204 -108 -376 -40 -524 207 -53 90 -101 156 -148 207 -85 91 7 18 117
-93 89 -89 127 -120 186 -149 40 -20 81 -37 90 -37 9 0 -18 17 -59 37 -58 28
-90 53 -145 112 -134 145 -201 206 -242 225 l-42 18 29 52 c16 28 38 80 50
116 11 36 24 72 27 80 8 21 4 143 -8 215 -16 97 -64 242 -155 468 -99 244
-128 302 -189 377 -42 51 -44 56 -28 67 44 31 84 81 94 116 12 46 -3 128 -29
149 -13 12 -14 10 -4 -9 15 -28 15 -102 -1 -130 -51 -91 -184 -94 -244 -4 -41
61 -21 160 37 191 12 6 19 14 16 17 -3 3 -21 -4 -40 -16 -38 -24 -70 -69 -81
-113 -4 -16 -11 -28 -16 -28 -5 0 -40 15 -77 34 -131 66 -505 176 -762 225
-227 42 -559 71 -842 71 -252 0 -370 -21 -470 -82 -48 -30 -165 -150 -196
-200 -9 -16 -19 -28 -22 -28 -3 0 -7 46 -8 102 -1 56 -9 158 -17 227 -34 288
-8 411 108 523 46 44 154 106 215 123 21 6 23 5 13 -13 -6 -12 -11 -38 -11
-59 0 -74 78 -125 166 -109 44 9 111 68 135 121 66 144 -34 268 -245 305 -89
15 -240 11 -338 -10z m345 -46 c92 -10 171 -55 203 -116 56 -107 -78 -263
-187 -218 -59 25 -78 93 -38 144 19 24 19 26 2 26 -35 0 -128 -30 -189 -60
-128 -63 -213 -184 -235 -334 -10 -65 -9 -121 6 -304 23 -299 12 -416 -50
-547 -84 -177 -275 -283 -460 -256 -150 22 -249 91 -310 215 -61 123 -77 261
-50 438 35 236 143 436 345 639 158 161 313 260 505 327 154 54 275 66 458 46z
m422 -904 c222 -14 446 -37 600 -61 154 -24 505 -112 678 -170 113 -37 307
-121 307 -133 0 -18 -15 -36 -32 -36 -24 0 -60 -19 -71 -37 -5 -8 -17 -11 -33
-7 -18 5 -34 0 -54 -15 -16 -11 -43 -21 -59 -21 -17 0 -42 -11 -59 -24 -19
-17 -36 -23 -51 -19 -14 4 -33 -2 -51 -16 -18 -13 -44 -21 -68 -21 -21 0 -47
-6 -58 -14 -10 -8 -29 -12 -41 -9 -13 3 -37 -3 -55 -14 -26 -15 -39 -17 -60
-9 -23 8 -33 6 -57 -12 -25 -18 -33 -20 -60 -9 -27 10 -37 9 -63 -6 -26 -15
-35 -16 -64 -5 -26 9 -39 9 -61 -2 -15 -7 -32 -12 -38 -10 -5 2 -32 6 -60 8
-27 2 -77 6 -110 8 -33 3 -81 7 -107 8 -25 1 -54 8 -63 16 -9 8 -36 14 -58 15
-23 0 -53 6 -66 13 -13 8 -37 12 -54 9 -21 -3 -37 2 -51 14 -11 11 -34 19 -52
19 -22 0 -42 9 -59 26 -26 26 -53 29 -97 10 -12 -6 -21 0 -32 22 -14 27 -13
33 9 88 54 130 14 276 -97 359 l-40 30 59 6 c98 10 162 9 328 -1z m-389 -30
c45 -28 91 -101 104 -166 13 -64 2 -132 -30 -187 l-21 -36 20 -11 c27 -14 51
-61 51 -100 0 -66 -53 -120 -117 -120 -72 0 -135 81 -115 147 12 39 6 44 -8 8
-11 -29 -31 -31 -108 -12 -97 26 -182 111 -182 182 0 48 141 205 241 267 24
16 105 47 123 48 5 0 23 -9 42 -20z m2074 -395 c0 -16 -34 -38 -44 -28 -3 3
-6 15 -6 25 0 13 7 18 25 18 15 0 25 -6 25 -15z m-116 -51 c9 -25 7 -34 -8
-34 -19 0 -29 17 -22 35 7 20 22 19 30 -1z m-100 -41 c4 -9 3 -20 -2 -25 -11
-11 -42 1 -42 16 0 29 34 36 44 9z m-114 -27 c0 -2 3 -11 6 -20 4 -11 0 -16
-13 -16 -25 0 -33 8 -26 26 4 12 33 21 33 10z m-1503 -32 c3 -8 1 -20 -4 -25
-14 -14 -43 0 -43 22 0 24 38 26 47 3z m1401 -27 c4 -20 -25 -34 -40 -19 -15
15 -1 44 19 40 10 -2 19 -11 21 -21z m-1288 -27 c0 -13 -7 -20 -19 -20 -22 0
-35 15 -26 30 12 19 45 11 45 -10z m1168 -8 c3 -16 -2 -22 -17 -22 -26 0 -36
17 -20 36 16 19 33 13 37 -14z m-1060 -20 c2 -14 -2 -22 -12 -22 -19 0 -29 17
-22 36 8 22 30 12 34 -14z m946 2 c9 -25 7 -34 -8 -34 -19 0 -29 17 -22 35 7
20 22 19 30 -1z m-826 -32 c2 -14 -2 -22 -11 -22 -19 0 -40 26 -32 40 11 18
40 6 43 -18z m720 0 c3 -17 -2 -22 -18 -22 -25 0 -38 29 -19 41 20 13 34 6 37
-19z m-608 -17 c0 -25 -23 -35 -35 -15 -10 16 2 40 20 40 9 0 15 -9 15 -25z
m487 9 c6 -16 -11 -34 -33 -34 -14 0 -26 28 -18 41 9 15 44 10 51 -7z m-367
-25 c0 -12 -7 -19 -19 -19 -26 0 -36 17 -21 35 15 18 40 8 40 -16z m240 11 c0
-24 -26 -38 -42 -22 -16 16 -2 42 22 42 13 0 20 -7 20 -20z m-122 -18 c3 -16
-2 -22 -17 -22 -24 0 -35 15 -27 36 9 23 40 13 44 -14z m-2290 -498 c52 -53
113 -78 192 -77 77 1 125 20 182 71 41 36 42 36 24 7 -31 -50 -57 -74 -110
-100 -84 -42 -191 -28 -268 35 -36 30 -98 138 -98 169 1 9 10 -3 21 -26 11
-23 37 -58 57 -79z m3969 -950 c-7 -7 -57 37 -57 50 0 6 6 18 13 25 10 10 16
4 30 -29 10 -23 17 -44 14 -46z m2140 -1829 c48 -20 71 -41 94 -87 58 -114
-27 -248 -157 -248 -127 0 -212 136 -155 248 24 47 50 70 98 88 50 17 76 17
120 -1z m-2366 -1501 c-29 -20 -247 -171 -483 -335 -330 -230 -433 -297 -443
-289 -23 19 -94 172 -111 240 -31 120 0 330 46 315 10 -3 86 -10 169 -15 300
-18 641 25 821 104 57 25 58 18 1 -20z"/>
<path d="M2690 8162 c-253 -112 -462 -328 -545 -567 -23 -66 -32 -239 -15
-314 40 -181 155 -292 301 -292 35 0 81 6 101 13 62 22 123 81 159 154 48 98
51 192 10 382 -53 243 -40 410 42 575 25 48 42 87 38 86 -3 0 -44 -17 -91 -37z
m-15 -79 c-29 -68 -47 -161 -52 -263 -5 -102 -2 -132 26 -267 53 -255 41 -351
-54 -450 -92 -94 -211 -98 -311 -10 -79 70 -117 172 -118 317 0 147 47 270
155 405 84 106 185 194 289 253 63 36 75 39 65 15z"/>
<path d="M7976 3560 c-53 -16 -96 -75 -96 -132 0 -37 34 -90 71 -110 70 -38
150 -13 183 57 49 103 -49 218 -158 185z"/>
<path d="M4698 6310 c11 -25 47 -99 80 -165 70 -140 88 -209 72 -281 -16 -69
-51 -104 -107 -104 -101 0 -173 71 -286 284 -79 147 -102 182 -68 104 54 -124
139 -275 182 -323 120 -130 265 -119 299 24 21 90 0 163 -102 354 -74 139
-103 182 -70 107z"/>
<path d="M4816 5674 c-24 -24 -20 -80 6 -98 33 -23 64 -19 87 10 25 32 26 52
5 82 -18 26 -74 30 -98 6z"/>
<path d="M4071 5560 c-287 -40 -665 -288 -884 -579 -26 -35 -45 -66 -42 -69 3
-3 31 19 63 50 180 175 424 321 655 394 118 37 376 124 465 156 28 11 52 23
52 27 0 21 -208 35 -309 21z"/>
<path d="M6358 5373 c7 -3 16 -2 19 1 4 3 -2 6 -13 5 -11 0 -14 -3 -6 -6z"/>
<path d="M6260 5166 c0 -2 8 -10 18 -17 15 -13 16 -12 3 4 -13 16 -21 21 -21
13z"/>
<path d="M3895 5065 c-68 -15 -170 -52 -236 -85 -53 -27 -229 -140 -229 -147
0 -3 10 1 23 9 75 50 215 122 294 153 200 76 366 86 538 30 20 -6 20 -6 0 6
-69 44 -266 61 -390 34z"/>
<path d="M4441 4864 c-77 -16 -192 -73 -310 -152 -189 -128 -264 -164 -375
-182 -100 -16 -230 9 -391 76 -18 7 -18 6 -7 -9 12 -14 10 -19 -20 -37 -40
-24 -23 -27 26 -3 32 15 36 15 60 -1 35 -22 33 -31 -14 -62 -22 -15 -40 -28
-40 -31 0 -6 63 28 82 44 17 15 72 10 83 -7 3 -5 -14 -30 -38 -55 -56 -58 -41
-59 21 -1 38 36 52 43 75 39 15 -3 30 -9 32 -13 3 -5 -11 -29 -31 -55 -27 -36
-30 -43 -11 -29 13 10 35 33 48 51 18 25 32 33 56 33 17 0 35 -5 38 -10 4 -6
-10 -41 -30 -78 -40 -74 -12 -47 36 34 25 44 35 52 64 56 42 5 44 -6 15 -71
-11 -24 -18 -46 -16 -48 6 -6 47 73 55 106 4 13 17 28 29 32 21 8 22 6 23 -44
1 -41 3 -47 9 -27 4 14 8 39 9 56 1 23 8 34 26 42 41 19 45 15 45 -45 0 -72 9
-63 18 18 9 81 30 86 54 14 19 -57 24 -36 7 32 -10 36 -9 47 2 53 18 12 26 5
54 -48 30 -57 33 -41 4 24 -19 47 -19 49 -2 62 19 14 20 13 73 -56 15 -20 18
-22 14 -7 -4 11 -18 35 -32 54 l-25 34 24 18 c13 10 27 19 30 19 4 0 18 -18
33 -40 36 -55 44 -51 12 6 -14 26 -26 48 -26 50 0 2 9 8 20 14 16 9 22 6 35
-21 9 -17 19 -29 21 -26 3 3 -2 20 -11 37 -14 27 -15 34 -3 41 20 13 25 11 44
-13 16 -22 15 -16 -1 25 -7 16 69 59 163 92 78 28 49 32 -57 9z"/>
<path d="M6628 4613 c6 -2 18 -2 25 0 6 3 1 5 -13 5 -14 0 -19 -2 -12 -5z"/>
<path d="M6778 4543 c7 -3 16 -2 19 1 4 3 -2 6 -13 5 -11 0 -14 -3 -6 -6z"/>
<path d="M1947 4207 c-25 -64 7 -140 88 -212 67 -59 79 -81 89 -175 15 -131
81 -254 167 -312 50 -33 90 -35 134 -8 23 14 41 18 64 14 29 -6 31 -9 31 -50
0 -40 -2 -44 -25 -44 -64 0 -159 -81 -198 -169 -29 -65 -28 -186 2 -262 29
-76 89 -142 158 -176 76 -36 174 -38 246 -4 190 92 238 374 90 533 -56 59
-114 88 -179 88 l-50 0 -1 40 c-2 35 1 40 20 40 69 1 110 106 72 180 -42 81
-181 80 -229 0 -18 -32 -21 -92 -5 -122 15 -28 -9 -51 -52 -50 -72 2 -170 145
-191 278 -23 148 -33 168 -124 235 -60 44 -83 81 -93 148 -5 33 -9 41 -14 28z
m624 -557 c27 -15 25 -63 -6 -97 l-25 -28 -25 28 c-29 33 -32 63 -8 89 18 20
36 23 64 8z m72 -266 c78 -39 127 -120 127 -209 0 -90 -78 -196 -155 -211 -92
-17 -181 26 -223 108 -61 119 -29 229 93 312 33 23 47 26 83 22 23 -3 57 -13
75 -22z m156 -255 c3 -91 -54 -191 -132 -230 -59 -30 -142 -23 -199 17 -46 32
-93 101 -103 149 l-6 30 20 -35 c75 -136 220 -167 326 -69 49 45 74 106 76
178 1 38 2 42 9 21 4 -14 8 -41 9 -61z"/>
<path d="M5701 3657 c-19 -6 -52 -27 -73 -48 -30 -28 -55 -40 -111 -54 -148
-35 -226 -89 -301 -205 -32 -50 -55 -72 -87 -88 -24 -12 -38 -22 -30 -22 31 0
93 47 130 100 79 112 153 160 301 195 60 15 80 24 102 50 37 44 88 66 172 75
l71 7 -70 1 c-38 0 -85 -5 -104 -11z"/>
<path d="M5831 3590 c-46 -32 -104 -79 -130 -104 -37 -36 -62 -50 -129 -71
-60 -19 -110 -45 -179 -92 -53 -36 -110 -71 -128 -78 -49 -21 -150 -29 -184
-15 -16 6 -38 10 -48 8 -11 -2 8 -13 47 -26 76 -27 388 -57 482 -46 118 12
255 106 297 203 11 27 29 87 40 133 11 45 23 92 26 103 5 16 4 17 -3 5 -6 -9
-22 -58 -37 -110 -14 -52 -37 -113 -50 -136 -50 -86 -156 -156 -261 -173 -53
-8 -430 2 -441 12 -2 2 26 7 61 10 68 6 127 31 186 77 55 43 139 86 215 110
56 18 79 32 115 69 25 26 82 75 128 110 45 34 82 64 82 66 0 7 2 8 -89 -55z"/>
<path d="M6770 3491 c0 -6 4 -13 10 -16 6 -3 7 1 4 9 -7 18 -14 21 -14 7z"/>
<path d="M6660 3240 c6 -11 13 -20 16 -20 2 0 0 9 -6 20 -6 11 -13 20 -16 20
-2 0 0 -9 6 -20z"/>
<path d="M8387 2915 c18 -8 40 -26 49 -39 37 -57 -15 -94 -84 -59 l-40 20 14
-23 c39 -59 133 -66 163 -12 30 52 -17 114 -94 123 l-40 5 32 -15z"/>
<path d="M8131 2844 c0 -11 3 -14 6 -6 3 7 2 16 -1 19 -3 4 -6 -2 -5 -13z"/>
<path d="M8252 2732 c23 -42 20 -85 -8 -96 -25 -9 -72 24 -89 63 l-16 36 5
-44 c11 -107 131 -140 160 -45 8 26 -8 71 -36 102 -32 33 -39 27 -16 -16z"/>
</g>
</svg>
